<svg width="86" height="82" viewBox="0 0 86 82" fill="none" xmlns="http://www.w3.org/2000/svg">
  <mask id="a" fill="#fff">
    <path d="M12.587 42.55a2 2 0 0 1 0-2.828l4.594-4.594c4.686-4.686 12.284-4.686 16.97 0l4.595 4.594a2 2 0 0 1 0 2.829l-4.595 4.594c-4.686 4.686-12.284 4.686-16.97 0z"/>
  </mask>
  <path d="M12.587 42.55a2 2 0 0 1 0-2.828l4.594-4.594c4.686-4.686 12.284-4.686 16.97 0l4.595 4.594a2 2 0 0 1 0 2.829l-4.595 4.594c-4.686 4.686-12.284 4.686-16.97 0z" stroke="#fff" stroke-width="8" mask="url(#a)"/>
  <mask id="b" fill="#fff">
    <path d="M46.69 42.55a2 2 0 0 1 0-2.828l4.594-4.594c4.686-4.686 12.284-4.686 16.97 0l4.595 4.594a2 2 0 0 1 0 2.829l-4.595 4.594c-4.686 4.686-12.284 4.686-16.97 0z"/>
  </mask>
  <path d="M46.69 42.55a2 2 0 0 1 0-2.828l4.594-4.594c4.686-4.686 12.284-4.686 16.97 0l4.595 4.594a2 2 0 0 1 0 2.829l-4.595 4.594c-4.686 4.686-12.284 4.686-16.97 0z" stroke="#fff" stroke-width="8" mask="url(#b)"/>
  <mask id="c" fill="#fff">
    <path d="M41.304 11.006a2 2 0 0 1 2.828 0l4.594 4.594c4.687 4.686 4.686 12.284 0 16.97l-4.594 4.594a2 2 0 0 1-2.828 0l-4.595-4.594c-4.686-4.686-4.686-12.284 0-16.97z"/>
  </mask>
  <path d="M41.304 11.006a2 2 0 0 1 2.828 0l4.594 4.594c4.687 4.686 4.686 12.284 0 16.97l-4.594 4.594a2 2 0 0 1-2.828 0l-4.595-4.594c-4.686-4.686-4.686-12.284 0-16.97z" stroke="#fff" stroke-width="8" mask="url(#c)"/>
  <mask id="d" fill="#fff">
    <path d="M41.08 43.414a2 2 0 0 1 2.828 0l4.594 4.594c4.686 4.687 4.686 12.285 0 16.971l-4.594 4.594a2 2 0 0 1-2.828 0l-4.595-4.594c-4.686-4.686-4.686-12.284 0-16.97z"/>
  </mask>
  <path d="M41.08 43.414a2 2 0 0 1 2.828 0l4.594 4.594c4.686 4.687 4.686 12.285 0 16.971l-4.594 4.594a2 2 0 0 1-2.828 0l-4.595-4.594c-4.686-4.686-4.686-12.284 0-16.97z" stroke="#fff" stroke-width="8" mask="url(#d)"/>
  <path d="M50.574 2.483c2.327-.194 4.318-.164 6.158.49 1.218.433 2.126 1.424 3.27 2.996 1.03 1.416 2.35 3.487 4.267 4.84 2.135 1.505 5.004 2.523 7.128 3.426 2.384 1.012 3.856 1.878 4.497 2.949.814 1.358 1.221 3.042 1.588 5.184.35 2.043.668 4.549 1.41 6.999.66 2.18 2.058 4.467 3.04 6.322 1.077 2.03 1.784 3.728 1.784 5.311 0 1.514-.653 2.851-1.705 4.511-.968 1.527-2.431 3.516-3.12 5.789-.763 2.523-.898 5.395-1.154 7.634-.275 2.408-.69 4.29-1.742 5.73-1.043 1.427-2.712 2.407-4.912 3.416-2.04.936-4.708 1.952-6.814 3.436-1.892 1.334-3.205 3.292-4.237 4.638-1.128 1.471-2.044 2.426-3.3 2.873-1.84.653-3.83.684-6.158.49-2.19-.181-4.947-.606-7.574-.606s-5.383.425-7.574.607c-2.327.193-4.318.162-6.158-.491-1.68-.597-3.029-1.655-4.468-3.023-1.356-1.288-2.976-3.058-4.817-4.45-1.795-1.356-4.01-2.47-5.72-3.466-1.83-1.065-3.284-2.09-4.258-3.424-1.112-1.521-1.703-3.5-2.177-5.891-.443-2.237-.807-5.06-1.538-7.473-.655-2.164-1.836-4.106-2.62-5.633C2.837 44.046 2.284 42.64 2.284 41c0-1.583.707-3.282 1.783-5.311.984-1.855 2.381-4.142 3.041-6.323.757-2.5.897-5.024 1.15-6.931.265-2.003.661-3.613 1.747-5.099.951-1.302 2.37-2.243 4.2-3.23 1.707-.92 3.947-1.953 5.778-3.336 1.873-1.415 3.494-3.282 4.857-4.65 1.452-1.459 2.786-2.564 4.428-3.147 1.84-.654 3.83-.684 6.158-.49 2.19.182 4.947.605 7.574.605s5.383-.423 7.574-.605Z" stroke="#fff" stroke-width="4"/>
</svg>
