<svg width="21" height="18" viewBox="0 0 21 18" fill="none" xmlns="http://www.w3.org/2000/svg">
<path d="M0.792969 2.09091C0.792969 1.48484 1.0182 0.984836 1.46864 0.590909C1.91909 0.196964 2.50469 0 3.2254 0C3.93326 0 4.50596 0.193927 4.94355 0.581818C5.39399 0.981818 5.61922 1.50302 5.61922 2.14545C5.61922 2.72727 5.40044 3.21211 4.96285 3.6C4.51241 4 3.92038 4.2 3.18679 4.2H3.16749C2.45963 4.2 1.88693 4 1.44934 3.6C1.01175 3.2 0.792969 2.69696 0.792969 2.09091ZM1.04393 18V5.85455H5.32965V18H1.04393ZM7.70417 18H11.9899V11.2182C11.9899 10.7939 12.0414 10.4667 12.1443 10.2364C12.3245 9.82424 12.598 9.47575 12.9648 9.19091C13.3316 8.90605 13.7917 8.76364 14.3451 8.76364C15.7865 8.76364 16.5073 9.67878 16.5073 11.5091V18H20.793V11.0364C20.793 9.24242 20.3425 7.88182 19.4416 6.95455C18.5407 6.02727 17.3502 5.56364 15.8702 5.56364C14.21 5.56364 12.9165 6.23636 11.9899 7.58182V7.61818H11.9706L11.9899 7.58182V5.85455H7.70417C7.7299 6.24242 7.74278 7.44847 7.74278 9.47273C7.74278 11.497 7.7299 14.3394 7.70417 18Z" fill="#C69B7B"/>
</svg>
