<svg width="93" height="24" viewBox="0 0 93 24" fill="none" xmlns="http://www.w3.org/2000/svg">
<path d="M71.2129 6.26025H66.2404C65.9481 6.26025 65.6567 6.55831 65.5097 6.85638L63.4619 19.9722C63.4619 20.2703 63.6089 20.4193 63.9012 20.4193H66.5336C66.8259 20.4193 66.972 20.2703 66.972 19.9722L67.5575 16.2462C67.5575 15.9481 67.8498 15.6501 68.2882 15.6501H69.8958C73.2607 15.6501 75.1606 14.0105 75.599 10.7316C75.8922 9.39022 75.599 8.19786 75.0153 7.45269C74.1375 6.70735 72.8222 6.26025 71.2129 6.26025ZM71.7983 11.1787C71.5052 12.9672 70.189 12.9672 68.8737 12.9672H67.9959L68.5805 9.53925C68.5805 9.39021 68.7267 9.24118 69.019 9.24118H69.3121C70.189 9.24118 71.0667 9.24118 71.5052 9.83731C71.7983 9.98635 71.7983 10.4334 71.7983 11.1787Z" fill="white"/>
<path d="M35.4045 6.26074H30.4338C30.1415 6.26074 29.8483 6.5589 29.7013 6.85696L27.6553 19.9728C27.6553 20.2708 27.8014 20.4199 28.0937 20.4199H30.4338C30.7252 20.4199 31.0184 20.1218 31.1654 19.8237L31.7491 16.2467C31.7491 15.9485 32.0423 15.6504 32.4807 15.6504H34.0892C37.4523 15.6504 39.353 14.011 39.7924 10.732C40.0855 9.39062 39.7924 8.19835 39.2078 7.4531C38.33 6.70793 37.16 6.26074 35.4045 6.26074ZM35.9899 11.1791C35.6977 12.9678 34.3823 12.9678 33.0662 12.9678H32.3346L32.9191 9.53965C32.9191 9.39061 33.0662 9.24158 33.3585 9.24158H33.6507C34.5276 9.24158 35.4045 9.24158 35.8447 9.8378C35.9899 9.98684 36.1361 10.4339 35.9899 11.1791Z" fill="white"/>
<path d="M50.4757 11.0303H48.1356C47.9895 11.0303 47.6972 11.1794 47.6972 11.3284L47.5502 12.0736L47.404 11.7755C46.8185 11.0303 45.7947 10.7322 44.6255 10.7322C41.994 10.7322 39.653 12.8189 39.2146 15.6506C38.9223 17.1411 39.3608 18.4824 40.0915 19.3767C40.824 20.2709 41.847 20.569 43.1632 20.569C45.3562 20.569 46.5263 19.2277 46.5263 19.2277L46.3801 19.9729C46.3801 20.2709 46.5263 20.42 46.8186 20.42H49.0125C49.3048 20.42 49.5971 20.1219 49.7432 19.8238L51.0594 11.4774C50.9141 11.3284 50.621 11.0303 50.4757 11.0303ZM47.1117 15.7997C46.8185 17.141 45.7947 18.1844 44.3323 18.1844C43.6016 18.1844 43.017 17.8863 42.7247 17.5882C42.4324 17.141 42.2863 16.5449 42.2863 15.7997C42.4324 14.4584 43.6016 13.415 44.9178 13.415C45.6494 13.415 46.0878 13.7131 46.5263 14.0112C46.9656 14.4584 47.1117 15.2035 47.1117 15.7997Z" fill="white"/>
<path d="M86.138 11.032H83.7988C83.6526 11.032 83.3595 11.181 83.3595 11.33L83.2142 12.0754L83.0681 11.7773C82.4826 11.032 81.4587 10.7339 80.2896 10.7339C77.6563 10.7339 75.3171 12.8205 74.8787 15.6523C74.5864 17.1428 75.0248 18.4841 75.7555 19.3783C76.4871 20.2727 77.511 20.5708 78.8272 20.5708C81.0203 20.5708 82.1903 19.2293 82.1903 19.2293L82.0442 19.9747C82.0442 20.2727 82.1903 20.4218 82.4826 20.4218H84.6757C84.9688 20.4218 85.2611 20.1237 85.4073 19.8256L86.7234 11.4792C86.5764 11.33 86.4312 11.032 86.138 11.032ZM82.7758 15.8014C82.4826 17.1428 81.4587 18.1861 79.9964 18.1861C79.2656 18.1861 78.6802 17.8879 78.3888 17.5899C78.0956 17.1428 77.9495 16.5466 77.9495 15.8014C78.0956 14.46 79.2657 13.4168 80.5818 13.4168C81.3134 13.4168 81.7519 13.7148 82.1903 14.0129C82.7758 14.46 82.921 15.2052 82.7758 15.8014Z" fill="white"/>
<path d="M63.1695 11.0332H60.6833C60.391 11.0332 60.2448 11.1822 60.0996 11.3313L56.8817 16.3987L55.4185 11.6293C55.2733 11.3313 55.1271 11.1822 54.6878 11.1822H52.3486C52.0554 11.1822 51.9102 11.4803 51.9102 11.7784L54.5417 19.6777L52.0554 23.2546C51.9102 23.5529 52.0554 24 52.3486 24H54.6878C54.9801 24 55.1271 23.8509 55.2733 23.7019L63.3165 11.9275C63.755 11.4803 63.4618 11.0332 63.1695 11.0332Z" fill="white"/>
<path d="M88.9102 6.70761L86.8633 20.1215C86.8633 20.4195 87.0094 20.5686 87.3017 20.5686H89.3486C89.6409 20.5686 89.9341 20.2705 90.0802 19.9724L92.1271 6.85664C92.1271 6.55858 91.981 6.40954 91.6887 6.40954H89.3486C89.2025 6.26051 89.0572 6.40954 88.9102 6.70761Z" fill="white"/>
<path d="M16.8173 1.78849C15.7934 0.596132 13.8926 0 11.2593 0H3.94856C3.51013 0 3.07082 0.447098 2.92467 0.894197L0 20.4189C0 20.866 0.293166 21.164 0.584582 21.164H5.1186L6.28777 13.8609V14.159C6.43479 13.7119 6.87323 13.2648 7.31167 13.2648H9.50472C13.7456 13.2648 16.9625 11.4763 17.9864 6.55781C17.9864 6.40878 17.9864 6.25975 17.9864 6.11071C17.8411 6.11071 17.8411 6.11071 17.9864 6.11071C18.1326 4.17311 17.8411 2.98084 16.8173 1.78849Z" fill="white"/>
<path d="M17.8378 6.1123C17.8378 6.26134 17.8378 6.41037 17.8378 6.55941C16.8157 11.6269 13.5979 13.2663 9.35702 13.2663H7.16396C6.72465 13.2663 6.2862 13.7134 6.14006 14.1606L4.67773 23.2522C4.67773 23.5503 4.82388 23.8483 5.26232 23.8483H9.06473C9.50317 23.8483 9.9416 23.5502 9.9416 23.1031V22.9541L10.6723 18.3337V18.0357C10.6723 17.5886 11.1125 17.2904 11.551 17.2904H12.1347C15.7918 17.2904 18.7156 15.8001 19.4472 11.3288C19.7395 9.54025 19.5925 7.90079 18.7156 6.85747C18.5694 6.55941 18.2771 6.26134 17.8378 6.1123Z" fill="white"/>
<path d="M16.8256 5.66585C16.6803 5.66585 16.5342 5.51682 16.3872 5.51682C16.2419 5.51682 16.0949 5.51682 15.9487 5.36778C15.3633 5.21875 14.7795 5.21875 14.0479 5.21875H8.34477C8.19862 5.21875 8.05248 5.21875 7.90546 5.36778C7.61404 5.51682 7.46703 5.81497 7.46703 6.11304L6.29785 13.8633V14.1614C6.44312 13.7142 6.88332 13.2671 7.32176 13.2671H9.51481C13.7557 13.2671 16.9726 11.4786 17.9965 6.56014C17.9965 6.41111 17.9965 6.26207 18.1426 6.11304C17.8495 5.96401 17.7042 5.81497 17.411 5.81497C16.9726 5.66585 16.9726 5.66585 16.8256 5.66585Z" fill="white"/>
</svg>
